<svg width="32" height="32" viewBox="0 0 32 32" fill="none" xmlns="http://www.w3.org/2000/svg">
<g clip-path="url(#clip0_190_35)">
<rect width="32" height="32" fill="white"/>
<path d="M3.65261 20V12.7273H5.19025V15.9339H5.28613L7.90332 12.7273H9.74636L7.0475 15.9837L9.77832 20H7.93883L5.94664 17.0099L5.19025 17.9332V20H3.65261ZM17.8202 16.3636C17.8202 17.1567 17.6699 17.8314 17.3692 18.3878C17.0709 18.9441 16.6637 19.3691 16.1476 19.6626C15.6339 19.9538 15.0563 20.0994 14.4147 20.0994C13.7684 20.0994 13.1884 19.9527 12.6746 19.6591C12.1609 19.3655 11.7549 18.9406 11.4566 18.3842C11.1583 17.8279 11.0091 17.1544 11.0091 16.3636C11.0091 15.5705 11.1583 14.8958 11.4566 14.3395C11.7549 13.7831 12.1609 13.3594 12.6746 13.0682C13.1884 12.7746 13.7684 12.6278 14.4147 12.6278C15.0563 12.6278 15.6339 12.7746 16.1476 13.0682C16.6637 13.3594 17.0709 13.7831 17.3692 14.3395C17.6699 14.8958 17.8202 15.5705 17.8202 16.3636ZM16.2613 16.3636C16.2613 15.8499 16.1843 15.4167 16.0305 15.0639C15.8789 14.7112 15.6647 14.4437 15.3877 14.2614C15.1107 14.0791 14.7864 13.9879 14.4147 13.9879C14.043 13.9879 13.7187 14.0791 13.4417 14.2614C13.1647 14.4437 12.9492 14.7112 12.7954 15.0639C12.6439 15.4167 12.5681 15.8499 12.5681 16.3636C12.5681 16.8774 12.6439 17.3106 12.7954 17.6634C12.9492 18.0161 13.1647 18.2836 13.4417 18.4659C13.7187 18.6482 14.043 18.7393 14.4147 18.7393C14.7864 18.7393 15.1107 18.6482 15.3877 18.4659C15.6647 18.2836 15.8789 18.0161 16.0305 17.6634C16.1843 17.3106 16.2613 16.8774 16.2613 16.3636ZM19.9593 20V12.7273H24.7746V13.995H21.4969V15.728H24.455V16.9957H21.4969V20H19.9593ZM28.3465 12.7273V20H26.8089V12.7273H28.3465Z" fill="black"/>
</g>
<defs>
<clipPath id="clip0_190_35">
<rect width="32" height="32" fill="white"/>
</clipPath>
</defs>
</svg>
